<svg preserveAspectRatio="none" overflow="visible" style="display: block;" width="154" height="231" viewBox="0 0 154 231" fill="none" xmlns="http://www.w3.org/2000/svg">
<g id="Hero logo / &#208;&#161;&#208;&#146;&#208;&#158;&#208;&#152; / Primary / SVG">
<path id="Vector" d="M39.1851 1.12788C48.9837 0.656953 58.7449 3.66667 66.3774 9.9062L67.3921 10.7158C68.4176 11.5584 69.449 12.5161 70.2241 13.7294C71.3897 15.5543 71.5517 18.0025 70.8296 19.9785C70.09 22.0019 68.349 23.6752 65.6831 23.5693C64.9347 23.5395 63.8053 23.7019 62.6011 23.1806C61.6891 22.7859 60.9223 22.236 60.2388 21.6894C59.5124 21.1086 58.9673 20.6106 58.2954 20.1162L58.2866 20.1103L58.2778 20.1035C55.0922 17.6481 51.664 15.8023 47.8169 14.7832L47.8081 14.7812C41.1282 12.943 33.9884 13.9041 28.0308 17.4443L28.0229 17.4492C21.7935 21.0817 17.1953 27.4281 15.3765 34.4179C13.5118 41.7576 14.6192 49.5376 18.4575 56.0634C26.1686 69.1291 42.0256 72.8532 55.0474 65.3837L55.6655 65.0195C56.998 64.2053 58.0891 63.1916 59.4858 62.1435C60.8137 61.1471 62.3241 60.2105 64.1831 59.9492C66.0091 59.6925 67.7163 59.9913 69.0259 60.9521C70.3505 61.9242 71.1246 63.4685 71.271 65.4003C71.6015 69.7657 68.3437 71.9323 65.9126 73.874C59.519 78.9804 51.5493 81.782 43.4038 81.9853C32.3166 82.6871 21.9151 79.0961 13.7515 71.4082C-11.6939 47.4456 3.42747 2.44385 39.1851 1.12691V1.12788Z" fill="#FEFEFE" stroke="white" stroke-width="2"/>
<g id="&#208;&#146;">
<mask id="path-2-outside-1_0_4" maskUnits="userSpaceOnUse" x="85.1895" y="1.25217" width="69" height="140" fill="black">
<rect fill="white" x="85.1895" y="1.25217" width="69" height="140"/>
<path d="M114.437 3.38681C126.539 2.34468 139.638 7.32818 144.611 19.1739C149.692 31.2784 146.462 46.9938 133.482 52.5684C139.679 54.4661 145.746 59.3082 148.766 65.0167C151.918 70.9729 151.894 76.7019 151.885 83.2052L151.888 92.4298V103.517C151.887 106.038 151.947 108.561 151.748 111.077C150.877 122.038 144.358 130.709 134.764 135.681C115.398 144.828 90.6185 135.308 87.2995 112.771C87.0761 111.253 87.2644 108.161 87.2663 106.541L87.279 94.9347L87.2751 58.6026L87.277 37.4122C87.2746 36.2227 87.3377 34.6166 87.2663 33.464C86.1607 15.5961 97.0857 4.29956 114.437 3.38681ZM119.927 58.1642C117.743 58.0079 115.432 58.0849 113.238 58.0851L102.773 58.0938C101.174 58.0957 99.1166 58.1632 97.5827 58.0899L97.5612 95.0372L97.5475 105.277C97.5453 107.253 97.4268 110.487 97.8151 112.325C98.6166 116.118 100.705 119.667 103.401 122.414C107.522 126.625 113.166 128.992 119.053 128.98C125.237 129.026 130.594 127.083 135.093 122.733C143.134 114.527 141.52 106.243 141.52 95.6446L141.508 79.4366C141.394 66.1577 132.585 59.0701 119.927 58.1642ZM129.835 16.9093C126.406 14.3476 119.058 12.3351 114.76 13.13C109.677 13.6327 104.944 15.1408 101.609 19.2393C98.8433 22.6379 97.7011 27.4521 97.5885 31.7755C97.4461 37.2488 97.6508 42.7768 97.5368 48.2569L110.356 48.2745C113.24 48.2731 116.511 48.3432 119.361 48.086C122.85 47.5833 125.604 46.9671 128.678 45.0694C138.586 38.9525 139.075 23.8147 129.835 16.9093Z"/>
</mask>
<path d="M114.437 3.38681C126.539 2.34468 139.638 7.32818 144.611 19.1739C149.692 31.2784 146.462 46.9938 133.482 52.5684C139.679 54.4661 145.746 59.3082 148.766 65.0167C151.918 70.9729 151.894 76.7019 151.885 83.2052L151.888 92.4298V103.517C151.887 106.038 151.947 108.561 151.748 111.077C150.877 122.038 144.358 130.709 134.764 135.681C115.398 144.828 90.6185 135.308 87.2995 112.771C87.0761 111.253 87.2644 108.161 87.2663 106.541L87.279 94.9347L87.2751 58.6026L87.277 37.4122C87.2746 36.2227 87.3377 34.6166 87.2663 33.464C86.1607 15.5961 97.0857 4.29956 114.437 3.38681ZM119.927 58.1642C117.743 58.0079 115.432 58.0849 113.238 58.0851L102.773 58.0938C101.174 58.0957 99.1166 58.1632 97.5827 58.0899L97.5612 95.0372L97.5475 105.277C97.5453 107.253 97.4268 110.487 97.8151 112.325C98.6166 116.118 100.705 119.667 103.401 122.414C107.522 126.625 113.166 128.992 119.053 128.98C125.237 129.026 130.594 127.083 135.093 122.733C143.134 114.527 141.52 106.243 141.52 95.6446L141.508 79.4366C141.394 66.1577 132.585 59.0701 119.927 58.1642ZM129.835 16.9093C126.406 14.3476 119.058 12.3351 114.76 13.13C109.677 13.6327 104.944 15.1408 101.609 19.2393C98.8433 22.6379 97.7011 27.4521 97.5885 31.7755C97.4461 37.2488 97.6508 42.7768 97.5368 48.2569L110.356 48.2745C113.24 48.2731 116.511 48.3432 119.361 48.086C122.85 47.5833 125.604 46.9671 128.678 45.0694C138.586 38.9525 139.075 23.8147 129.835 16.9093Z" fill="#D9D9D9"/>
<path d="M114.437 3.38681L114.542 5.38405L114.576 5.38229L114.609 5.37943L114.437 3.38681ZM144.611 19.1739L146.455 18.3999L146.455 18.3997L144.611 19.1739ZM133.482 52.5684L132.693 50.7308L127.68 52.8834L132.896 54.4808L133.482 52.5684ZM148.766 65.0167L150.534 64.0813L150.534 64.0813L148.766 65.0167ZM151.885 83.2052L149.885 83.2026V83.2058L151.885 83.2052ZM151.888 92.4298H153.888V92.4291L151.888 92.4298ZM151.888 103.517L153.888 103.518V103.517H151.888ZM151.748 111.077L153.741 111.236L153.741 111.235L151.748 111.077ZM134.764 135.681L135.618 137.489L135.652 137.473L135.685 137.456L134.764 135.681ZM87.2995 112.771L85.3208 113.062L85.3208 113.062L87.2995 112.771ZM87.2663 106.541L89.2663 106.543V106.543L87.2663 106.541ZM87.279 94.9347L89.279 94.9368L89.279 94.9344L87.279 94.9347ZM87.2751 58.6026L85.2751 58.6024L85.2751 58.6028L87.2751 58.6026ZM87.277 37.4122L89.277 37.4124L89.277 37.4082L87.277 37.4122ZM87.2663 33.464L85.2701 33.5875L85.2701 33.5876L87.2663 33.464ZM119.927 58.1642L120.07 56.1693L120.07 56.1692L119.927 58.1642ZM113.238 58.085L113.238 56.085L113.236 56.0851L113.238 58.085ZM102.773 58.0938L102.771 56.0938H102.771L102.773 58.0938ZM97.5827 58.0899L97.6781 56.0922L95.5839 55.9922L95.5827 58.0888L97.5827 58.0899ZM97.5612 95.0372L99.5612 95.0399L99.5612 95.0384L97.5612 95.0372ZM97.5475 105.277L95.5475 105.275V105.275L97.5475 105.277ZM97.8151 112.325L95.8583 112.739L95.8583 112.739L97.8151 112.325ZM103.401 122.414L104.83 121.015L104.829 121.013L103.401 122.414ZM119.053 128.98L119.068 126.98L119.059 126.98L119.049 126.98L119.053 128.98ZM135.093 122.733L136.483 124.172L136.503 124.153L136.522 124.133L135.093 122.733ZM141.52 95.6446L143.52 95.6446V95.6432L141.52 95.6446ZM141.508 79.4366L143.508 79.4352L143.508 79.4273L143.508 79.4194L141.508 79.4366ZM129.835 16.9093L131.032 15.3072L131.032 15.3071L129.835 16.9093ZM114.76 13.13L114.957 15.1203L115.041 15.112L115.124 15.0966L114.76 13.13ZM101.609 19.2393L100.058 17.9769L100.058 17.977L101.609 19.2393ZM97.5885 31.7755L95.5892 31.7234V31.7234L97.5885 31.7755ZM97.5368 48.2569L95.5372 48.2153L95.4948 50.2541L97.534 50.2569L97.5368 48.2569ZM110.356 48.2745L110.353 50.2745L110.357 50.2745L110.356 48.2745ZM119.361 48.086L119.541 50.0779L119.594 50.0732L119.646 50.0656L119.361 48.086ZM128.678 45.0694L129.729 46.7713L129.729 46.7712L128.678 45.0694ZM114.437 3.38681L114.609 5.37943C126.182 4.38282 138.244 9.17588 142.767 19.9482L144.611 19.1739L146.455 18.3997C141.031 5.48047 126.896 0.306528 114.266 1.39418L114.437 3.38681ZM144.611 19.1739L142.767 19.948C147.574 31.4009 144.339 45.7292 132.693 50.7308L133.482 52.5684L134.271 54.4061C148.586 48.2584 151.809 31.1558 146.455 18.3999L144.611 19.1739ZM133.482 52.5684L132.896 54.4808C138.613 56.2313 144.24 60.7385 146.999 65.9521L148.766 65.0167L150.534 64.0813C147.251 57.878 140.745 52.7009 134.068 50.6561L133.482 52.5684ZM148.766 65.0167L146.998 65.9521C149.885 71.4064 149.894 76.642 149.885 83.2026L151.885 83.2052L153.885 83.2078C153.894 76.7618 153.951 70.5395 150.534 64.0813L148.766 65.0167ZM151.885 83.2052L149.885 83.2058L149.888 92.4304L151.888 92.4298L153.888 92.4291L153.885 83.2045L151.885 83.2052ZM151.888 92.4298H149.888V103.517H151.888H153.888V92.4298H151.888ZM151.888 103.517L149.888 103.516C149.887 106.103 149.945 108.506 149.754 110.92L151.748 111.077L153.741 111.235C153.949 108.617 153.887 105.973 153.888 103.518L151.888 103.517ZM151.748 111.077L149.754 110.919C148.945 121.105 142.906 129.209 133.844 133.905L134.764 135.681L135.685 137.456C145.811 132.209 152.809 122.97 153.741 111.236L151.748 111.077ZM134.764 135.681L133.91 133.872C115.469 142.583 92.3572 133.387 89.2781 112.479L87.2995 112.771L85.3208 113.062C88.8797 137.228 115.328 147.073 135.618 137.489L134.764 135.681ZM87.2995 112.771L89.2781 112.479C89.1938 111.906 89.1784 110.913 89.1981 109.727C89.216 108.653 89.2653 107.357 89.2663 106.543L87.2663 106.541L85.2663 106.539C85.2653 107.345 85.2196 108.404 85.1987 109.661C85.1796 110.806 85.1818 112.118 85.3208 113.062L87.2995 112.771ZM87.2663 106.541L89.2663 106.543L89.279 94.9368L87.279 94.9347L85.279 94.9325L85.2663 106.539L87.2663 106.541ZM87.279 94.9347L89.279 94.9344L89.2751 58.6024L87.2751 58.6026L85.2751 58.6028L85.279 94.9349L87.279 94.9347ZM87.2751 58.6026L89.2751 58.6028L89.277 37.4124L87.277 37.4122L85.277 37.412L85.2751 58.6024L87.2751 58.6026ZM87.277 37.4122L89.277 37.4082C89.2749 36.3653 89.3384 34.5668 89.2624 33.3403L87.2663 33.464L85.2701 33.5876C85.3369 34.6663 85.2743 36.0802 85.277 37.4162L87.277 37.4122ZM87.2663 33.464L89.2624 33.3404C88.7371 24.8497 91.0717 18.1245 95.4016 13.4219C99.7402 8.71009 106.276 5.81887 114.542 5.38405L114.437 3.38681L114.332 1.38957C105.247 1.86749 97.6445 5.08092 92.4591 10.7125C87.265 16.3534 84.6899 24.2103 85.2701 33.5875L87.2663 33.464ZM119.927 58.1642L120.07 56.1692C117.791 56.0062 115.338 56.0849 113.238 56.085L113.238 58.085L113.238 60.085C115.526 60.0849 117.696 60.0096 119.785 60.1591L119.927 58.1642ZM113.238 58.085L113.236 56.0851L102.771 56.0938L102.773 58.0938L102.775 60.0938L113.24 60.085L113.238 58.085ZM102.773 58.0938L102.771 56.0938C101.063 56.0958 99.1501 56.1625 97.6781 56.0922L97.5827 58.0899L97.4872 60.0877C99.0831 60.1639 101.286 60.0956 102.775 60.0938L102.773 58.0938ZM97.5827 58.0899L95.5827 58.0888L95.5612 95.036L97.5612 95.0372L99.5612 95.0384L99.5827 58.0911L97.5827 58.0899ZM97.5612 95.0372L95.5612 95.0345L95.5475 105.275L97.5475 105.277L99.5475 105.28L99.5612 95.0399L97.5612 95.0372ZM97.5475 105.277L95.5475 105.275C95.5465 106.191 95.5163 107.585 95.5351 108.882C95.5538 110.174 95.6205 111.613 95.8583 112.739L97.8151 112.325L99.7719 111.912C99.6214 111.199 99.5532 110.102 99.5346 108.824C99.5162 107.549 99.5463 106.339 99.5475 105.28L97.5475 105.277ZM97.8151 112.325L95.8583 112.739C96.75 116.958 99.052 120.838 101.974 123.815L103.401 122.414L104.829 121.013C102.358 118.496 100.483 115.278 99.7719 111.912L97.8151 112.325ZM103.401 122.414L101.972 123.813C106.47 128.409 112.63 130.993 119.058 130.98L119.053 128.98L119.049 126.98C113.701 126.991 108.575 124.841 104.83 121.015L103.401 122.414ZM119.053 128.98L119.038 130.98C125.703 131.03 131.577 128.914 136.483 124.172L135.093 122.733L133.703 121.295C129.611 125.251 124.772 127.023 119.068 126.98L119.053 128.98ZM135.093 122.733L136.522 124.133C145.276 115.198 143.52 105.823 143.52 95.6446L141.52 95.6446H139.52C139.52 106.662 140.992 113.855 133.665 121.334L135.093 122.733ZM141.52 95.6446L143.52 95.6432L143.508 79.4352L141.508 79.4366L139.508 79.4381L139.52 95.6461L141.52 95.6446ZM141.508 79.4366L143.508 79.4194C143.447 72.311 141.04 66.6685 136.786 62.6983C132.565 58.7597 126.719 56.6452 120.07 56.1693L119.927 58.1642L119.785 60.159C125.793 60.5891 130.68 62.4713 134.057 65.6227C137.4 68.7426 139.455 73.2833 139.509 79.4538L141.508 79.4366ZM129.835 16.9093L131.032 15.3071C129.034 13.8143 126.068 12.5849 123.124 11.8245C120.191 11.0669 116.955 10.6902 114.397 11.1633L114.76 13.13L115.124 15.0966C116.864 14.7749 119.45 15.0069 122.123 15.6973C124.785 16.3849 127.207 17.4426 128.638 18.5114L129.835 16.9093ZM114.76 13.13L114.564 11.1397C109.238 11.6664 103.876 13.2846 100.058 17.9769L101.609 19.2393L103.16 20.5017C106.012 16.997 110.116 15.599 114.957 15.1203L114.76 13.13ZM101.609 19.2393L100.058 17.977C96.9081 21.8474 95.7081 27.1598 95.5892 31.7234L97.5885 31.7755L99.5879 31.8275C99.6942 27.7445 100.779 23.4284 103.16 20.5017L101.609 19.2393ZM97.5885 31.7755L95.5892 31.7234C95.517 34.4977 95.5329 37.2794 95.552 40.0276C95.5712 42.7861 95.5935 45.5085 95.5372 48.2153L97.5368 48.2569L99.5363 48.2985C99.594 45.5252 99.571 42.7436 99.5519 39.9998C99.5328 37.2455 99.5176 34.5266 99.5879 31.8275L97.5885 31.7755ZM97.5368 48.2569L97.534 50.2569L110.353 50.2745L110.356 48.2745L110.359 46.2745L97.5395 46.2569L97.5368 48.2569ZM110.356 48.2745L110.357 50.2745C113.168 50.2731 116.574 50.3456 119.541 50.0779L119.361 48.086L119.181 46.0941C116.448 46.3408 113.312 46.2731 110.355 46.2745L110.356 48.2745ZM119.361 48.086L119.646 50.0656C123.236 49.5483 126.309 48.8821 129.729 46.7713L128.678 45.0694L127.628 43.3676C124.899 45.0522 122.464 45.6183 119.076 46.1065L119.361 48.086ZM128.678 45.0694L129.729 46.7712C140.863 39.8972 141.378 23.0392 131.032 15.3072L129.835 16.9093L128.637 18.5113C136.771 24.5901 136.309 38.0078 127.628 43.3676L128.678 45.0694Z" fill="white" mask="url(#path-2-outside-1_0_4)"/>
</g>
<g id="&#208;&#158;">
<mask id="path-4-outside-2_0_4" maskUnits="userSpaceOnUse" x="-0.649611" y="88.6468" width="73" height="142" fill="black">
<rect fill="white" x="-0.649611" y="88.6468" width="73" height="142"/>
<path d="M35.7059 90.648C49.9458 90.5423 61.7699 97.3572 67.5721 110.726C69.6022 115.404 70.0637 119.639 70.0838 124.713V173.822L70.0906 188.534C70.0936 193.603 70.3328 199.113 69.1326 204.097C66.2973 215.873 56.4242 225.513 44.574 228.007C43.0497 228.328 40.6038 228.232 38.9822 228.235C36.3927 228.242 31.2913 228.515 28.8865 228.145C16.0229 226.162 4.73235 214.557 2.95294 201.688C2.12069 195.668 2.43004 189.536 2.43145 183.639L2.43438 157.406L2.4295 134.856C2.42894 128.77 1.94675 121.406 3.36993 115.584C6.95104 100.934 19.3323 91.4851 34.0066 90.6851C34.5726 90.661 35.1393 90.6484 35.7059 90.648ZM51.4383 106.442C47.0358 102.802 40.9193 100.564 35.1492 101.001C22.0353 101.755 12.6488 111.97 12.6551 125.056C12.6564 127.561 12.6555 130.079 12.6561 132.585L12.6609 151.911L12.6629 181.351C12.6628 185.707 12.441 192.194 12.7029 196.374C13.0991 202.669 15.9736 208.55 20.6961 212.727C24.8405 216.356 31.5256 218.982 37.1395 218.543C47.9606 217.716 57.1078 210.971 59.3299 199.759C60.0711 196.019 59.713 190.531 59.7078 186.613L59.702 165.888L59.7 137.085C59.7001 132.235 59.836 126.679 59.6033 121.913C59.3221 116.152 55.8665 110.103 51.4383 106.442Z"/>
</mask>
<path d="M35.7059 90.648C49.9458 90.5423 61.7699 97.3572 67.5721 110.726C69.6022 115.404 70.0637 119.639 70.0838 124.713V173.822L70.0906 188.534C70.0936 193.603 70.3328 199.113 69.1326 204.097C66.2973 215.873 56.4242 225.513 44.574 228.007C43.0497 228.328 40.6038 228.232 38.9822 228.235C36.3927 228.242 31.2913 228.515 28.8865 228.145C16.0229 226.162 4.73235 214.557 2.95294 201.688C2.12069 195.668 2.43004 189.536 2.43145 183.639L2.43438 157.406L2.4295 134.856C2.42894 128.77 1.94675 121.406 3.36993 115.584C6.95104 100.934 19.3323 91.4851 34.0066 90.6851C34.5726 90.661 35.1393 90.6484 35.7059 90.648ZM51.4383 106.442C47.0358 102.802 40.9193 100.564 35.1492 101.001C22.0353 101.755 12.6488 111.97 12.6551 125.056C12.6564 127.561 12.6555 130.079 12.6561 132.585L12.6609 151.911L12.6629 181.351C12.6628 185.707 12.441 192.194 12.7029 196.374C13.0991 202.669 15.9736 208.55 20.6961 212.727C24.8405 216.356 31.5256 218.982 37.1395 218.543C47.9606 217.716 57.1078 210.971 59.3299 199.759C60.0711 196.019 59.713 190.531 59.7078 186.613L59.702 165.888L59.7 137.085C59.7001 132.235 59.836 126.679 59.6033 121.913C59.3221 116.152 55.8665 110.103 51.4383 106.442Z" fill="#D9D9D9"/>
<path d="M35.7059 90.648L35.7074 92.648L35.7207 92.6479L35.7059 90.648ZM67.5721 110.726L69.4067 109.93L69.4067 109.93L67.5721 110.726ZM70.0838 124.713H72.0838L72.0838 124.706L70.0838 124.713ZM70.0838 173.822H68.0838V173.823L70.0838 173.822ZM70.0906 188.534L68.0906 188.535V188.535L70.0906 188.534ZM69.1326 204.097L67.1882 203.629L67.1882 203.629L69.1326 204.097ZM44.574 228.007L44.9857 229.965L44.986 229.964L44.574 228.007ZM38.9822 228.235L38.9788 226.235L38.9768 226.235L38.9822 228.235ZM28.8865 228.145L28.5818 230.122L28.5823 230.122L28.8865 228.145ZM2.95294 201.688L0.971781 201.962L0.971787 201.962L2.95294 201.688ZM2.43145 183.639L4.43145 183.64V183.639L2.43145 183.639ZM2.43438 157.406L4.43438 157.406V157.405L2.43438 157.406ZM2.4295 134.856L0.429501 134.856V134.856L2.4295 134.856ZM3.36993 115.584L5.31273 116.058L5.31273 116.058L3.36993 115.584ZM34.0066 90.6851L33.9214 88.6869L33.9096 88.6874L33.8978 88.6881L34.0066 90.6851ZM51.4383 106.442L52.7127 104.901L52.7127 104.901L51.4383 106.442ZM35.1492 101.001L35.264 102.997L35.282 102.996L35.3 102.995L35.1492 101.001ZM12.6551 125.056L10.6551 125.057V125.057L12.6551 125.056ZM12.6561 132.585L10.6561 132.585V132.585L12.6561 132.585ZM12.6609 151.911L14.6609 151.911V151.91L12.6609 151.911ZM12.6629 181.351L14.6629 181.351V181.351L12.6629 181.351ZM12.7029 196.374L10.7069 196.499L10.7069 196.499L12.7029 196.374ZM20.6961 212.727L19.3711 214.225L19.3786 214.232L20.6961 212.727ZM37.1395 218.543L36.9872 216.548L36.9835 216.549L37.1395 218.543ZM59.3299 199.759L61.2917 200.148L61.2917 200.148L59.3299 199.759ZM59.7078 186.613L57.7078 186.613V186.616L59.7078 186.613ZM59.702 165.888L57.702 165.888V165.889L59.702 165.888ZM59.7 137.085L57.7 137.084V137.085L59.7 137.085ZM59.6033 121.913L57.6057 122.01V122.01L59.6033 121.913ZM35.7059 90.648L35.7207 92.6479C49.2406 92.5476 60.286 98.9617 65.7374 111.522L67.5721 110.726L69.4067 109.93C63.2538 95.7527 50.651 88.5371 35.691 88.6481L35.7059 90.648ZM67.5721 110.726L65.7374 111.522C67.6162 115.851 68.0643 119.782 68.0838 124.721L70.0838 124.713L72.0838 124.706C72.0632 119.495 71.5883 114.956 69.4067 109.93L67.5721 110.726ZM70.0838 124.713H68.0838V173.822H70.0838H72.0838V124.713H70.0838ZM70.0838 173.822L68.0838 173.823L68.0906 188.535L70.0906 188.534L72.0906 188.533L72.0838 173.821L70.0838 173.822ZM70.0906 188.534L68.0906 188.535C68.0937 193.75 68.3173 198.94 67.1882 203.629L69.1326 204.097L71.0771 204.565C72.3483 199.286 72.0935 193.456 72.0906 188.533L70.0906 188.534ZM69.1326 204.097L67.1882 203.629C64.5325 214.659 55.2524 223.716 44.162 226.05L44.574 228.007L44.986 229.964C57.5959 227.31 68.0621 217.087 71.0771 204.565L69.1326 204.097ZM44.574 228.007L44.1624 226.05C43.5997 226.169 42.7698 226.224 41.7819 226.241C40.7813 226.257 39.8735 226.233 38.9788 226.235L38.9822 228.235L38.9857 230.235C39.7126 230.234 40.8385 230.257 41.8474 230.24C42.8688 230.223 44.024 230.167 44.9857 229.965L44.574 228.007ZM38.9822 228.235L38.9768 226.235C37.708 226.238 35.628 226.31 33.841 226.332C31.9199 226.355 30.2049 226.324 29.1907 226.168L28.8865 228.145L28.5823 230.122C29.9729 230.336 32.0111 230.354 33.8892 230.331C35.9015 230.307 37.667 230.239 38.9877 230.235L38.9822 228.235ZM28.8865 228.145L29.1913 226.168C17.2122 224.322 6.59395 213.419 4.93409 201.414L2.95294 201.688L0.971787 201.962C2.87076 215.696 14.8335 228.002 28.5818 230.122L28.8865 228.145ZM2.95294 201.688L4.9341 201.414C4.1268 195.575 4.43 189.674 4.43145 183.64L2.43145 183.639L0.431454 183.639C0.43007 189.399 0.11458 195.761 0.971781 201.962L2.95294 201.688ZM2.43145 183.639L4.43145 183.639L4.43438 157.406L2.43438 157.406L0.434384 157.406L0.431454 183.639L2.43145 183.639ZM2.43438 157.406L4.43438 157.405L4.4295 134.856L2.4295 134.856L0.429501 134.856L0.434384 157.406L2.43438 157.406ZM2.4295 134.856L4.4295 134.856C4.42892 128.537 3.96505 121.572 5.31273 116.058L3.36993 115.584L1.42713 115.109C-0.071548 121.24 0.428958 129.002 0.429501 134.856L2.4295 134.856ZM3.36993 115.584L5.31273 116.058C8.66983 102.325 20.2574 93.4377 34.1155 92.6821L34.0066 90.6851L33.8978 88.6881C18.4073 89.5326 5.23225 99.5423 1.42713 115.109L3.36993 115.584ZM34.0066 90.6851L34.0919 92.6833C34.6305 92.6603 35.1693 92.6484 35.7074 92.648L35.7059 90.648L35.7044 88.648C35.1094 88.6484 34.5147 88.6616 33.9214 88.6869L34.0066 90.6851ZM51.4383 106.442L52.7127 104.901C47.9628 100.974 41.347 98.5263 34.9985 99.0062L35.1492 101.001L35.3 102.995C40.4916 102.602 46.1088 104.631 50.1639 107.983L51.4383 106.442ZM35.1492 101.001L35.0344 99.0038C20.8358 99.8202 10.6483 110.937 10.6551 125.057L12.6551 125.056L14.6551 125.055C14.6493 113.003 23.2348 103.689 35.264 102.997L35.1492 101.001ZM12.6551 125.056L10.6551 125.057C10.6564 127.562 10.6555 130.077 10.6561 132.585L12.6561 132.585L14.6561 132.584C14.6555 130.08 14.6564 127.56 14.6551 125.055L12.6551 125.056ZM12.6561 132.585L10.6561 132.585L10.6609 151.911L12.6609 151.911L14.6609 151.91L14.6561 132.584L12.6561 132.585ZM12.6609 151.911L10.6609 151.911L10.6629 181.351L12.6629 181.351L14.6629 181.351L14.6609 151.911L12.6609 151.911ZM12.6629 181.351L10.6629 181.351C10.6628 185.576 10.4399 192.239 10.7069 196.499L12.7029 196.374L14.699 196.249C14.4421 192.149 14.6628 185.839 14.6629 181.351L12.6629 181.351ZM12.7029 196.374L10.7069 196.499C11.1362 203.323 14.2519 209.697 19.3711 214.225L20.6961 212.727L22.0211 211.229C17.6953 207.403 15.0619 202.016 14.699 196.248L12.7029 196.374ZM20.6961 212.727L19.3786 214.232C23.862 218.157 31.0627 221.024 37.2954 220.536L37.1395 218.543L36.9835 216.549C31.9884 216.939 25.819 214.554 22.0136 211.222L20.6961 212.727ZM37.1395 218.543L37.2917 220.537C48.8637 219.653 58.8685 212.375 61.2917 200.148L59.3299 199.759L57.3681 199.37C55.3471 209.567 47.0575 215.779 36.9872 216.548L37.1395 218.543ZM59.3299 199.759L61.2917 200.148C61.7023 198.076 61.7963 195.606 61.7988 193.255C61.8 192.066 61.7775 190.877 61.7548 189.754C61.7319 188.622 61.7091 187.566 61.7078 186.61L59.7078 186.613L57.7078 186.616C57.7092 187.618 57.7331 188.718 57.7556 189.834C57.7784 190.959 57.8 192.11 57.7988 193.251C57.7963 195.558 57.6987 197.702 57.368 199.371L59.3299 199.759ZM59.7078 186.613L61.7078 186.612L61.702 165.888L59.702 165.888L57.702 165.889L57.7078 186.613L59.7078 186.613ZM59.702 165.888L61.702 165.888L61.7 137.084L59.7 137.085L57.7 137.085L57.702 165.888L59.702 165.888ZM59.7 137.085L61.7 137.085C61.7001 132.311 61.8368 126.646 61.6009 121.815L59.6033 121.913L57.6057 122.01C57.8352 126.711 57.7002 132.16 57.7 137.084L59.7 137.085ZM59.6033 121.913L61.6009 121.815C61.2881 115.406 57.5026 108.861 52.7127 104.901L51.4383 106.442L50.1638 107.983C54.2303 111.346 57.3561 116.897 57.6057 122.01L59.6033 121.913Z" fill="white" mask="url(#path-4-outside-2_0_4)"/>
</g>
<path id="Vector_2" d="M144.089 151.892C145.607 151.427 147.454 151.664 148.962 152.371C150.468 153.077 151.866 154.369 152.139 156.209C152.547 158.953 152.385 162.365 152.385 164.987L152.381 181.664L152.38 209.226L152.386 216.092C152.386 218.388 152.381 220.684 152.36 222.965C152.342 224.856 151.521 226.927 149.778 228.064L149.779 228.065C148.794 228.709 148.167 228.836 147.159 229.045L147.085 229.06L147.009 229.064C145.32 229.153 143.546 228.883 142.133 228.008C140.76 227.159 139.808 225.783 139.606 223.862L139.575 223.47C139.411 220.251 139.5 216.931 139.498 213.772V195.585L139.502 180.43L139.488 178.425C139.479 177.359 139.473 176.171 139.489 175.036C139.368 175.187 139.247 175.339 139.125 175.489C138.085 176.77 137.077 177.973 136.591 178.576L127.257 190.3L127.256 190.301L108.337 214.035L108.338 214.036C105.078 218.131 101.805 222.281 98.5031 226.358L98.4826 226.382L98.4621 226.406C98.1258 226.772 97.7012 227.265 97.2424 227.682C96.7791 228.104 96.2114 228.514 95.506 228.749C94.1295 229.336 92.305 229.186 90.8146 228.626C89.3174 228.063 87.7621 226.93 87.4133 225.191C87.2043 224.15 87.1538 222.589 87.1476 221.106C87.1417 219.671 87.1819 217.991 87.1818 217.054L87.1808 201.516L87.1828 172.701C87.1834 167.665 87.1592 162.584 87.214 157.533C87.2236 156.658 87.259 155.63 87.884 154.628C88.7789 153.192 90.0551 152.286 91.6359 151.848L91.7209 151.825L91.8078 151.816C93.6777 151.638 95.6215 151.792 97.1623 152.672C98.779 153.594 99.7957 155.225 99.9133 157.613C100.074 160.889 99.9893 164.227 99.9894 167.444L99.9885 185.7V185.701L99.9855 200.241L100.002 202.13C100.013 203.115 100.022 204.209 100.01 205.257L127.617 170.534L135.857 160.135C136.705 159.058 138.01 157.207 139.375 155.616C140.072 154.804 140.821 154.014 141.594 153.364C142.36 152.72 143.201 152.167 144.086 151.893L144.089 151.892Z" fill="#FEFEFE" stroke="white" stroke-width="2"/>
</g>
</svg>
